# xmcd CD database file
#
# Track frame offsets:
#	200
#	43500
#	80770
#	119092
#	189405
#	219067
#
# Disc length: 3093 seconds
#
# Revision: 2
# Processed by: cddbd v1.5.1PL0 Copyright (c) Steve Scherf et al.
# Submitted via: CDex 1.51
#
DISCID=4d0c1306
DTITLE=La  Banda del Lago - Cuestion de Tiempo
DYEAR=1992
DGENRE=New Age
TTITLE0=Samarkanda
TTITLE1=Nube - Danza Solar
TTITLE2=Fuego Sagrado
TTITLE3=El Mar
TTITLE4=Catedrales de Agua
TTITLE5=De Corazon
EXTD=YEAR: 1992
EXTT0=
EXTT1=
EXTT2=
EXTT3=
EXTT4=
EXTT5=
PLAYORDER=
